<?xml version="1.0" encoding="UTF-8"?>
<svg width="720" height="720" version="1.1" viewBox="0 0 720 720" xmlns="http://www.w3.org/2000/svg">
 <path d="m360 655.8c159.83 3.4e-4 289.4-129.57 289.4-289.4-0.19014-47.645-12.134-94.246-34.449-135.79-3.3805 4.6347-14.402-6.0013-27.901-9.348 0.19022 7.8335 6.9107 11.841 10.994 13.895-6.9798 3.4561-29.475-7.6122-59.096-21.135 6.6479 10.978 10.829 19.018 20.234 23.28-30.645-0.46486-20.892-12.093-82.633-17.412 22.694 10.934 23.234 9.2732 37.04 24.906-31.434-8.5044-32.998 8.4456-76.792-7.677 19.158 10.267 13.101 11.325 28.401 17.082-23.86-0.0931-27.851-7.407-41.068-4.3084 41.101 22.612 68.959 66.267 68.959 116.51-1.3e-4 73.505-59.587 133.09-133.09 133.09-73.505-1.3e-4 -133.09-59.587-133.09-133.09 9e-5 -42.94 20.335-81.132 51.9-105.47-89.254 1.5707-92.563-35.795-166.97-6.5473 24.751-47.328 53.983-63.667 81.365-80.216 28.58-17.259 60.741-27.249 91.697-36.373 30.945-9.1211 59.857-13.349 91.428-16.363 31.559-3.0135 60.819-0.81527 92.748 1.8926 31.907 2.6979 62.695 9.322 92.424 20.584 5.1635 1.956 7.7931 2.9128 16.457 6.2812-5.6212 0.31104-11.56-2.5713-17.125-4.1582-11.776-3.3582-24.408-6.7857-36.367-8.875-11.951-2.1044-23.426-3.8464-35.439-5.2051-12.019-1.3593-24.011-1.6947-36.178-2.2617-12.161-0.55853-23.257-0.94786-35.32-0.80274-12.068 0.14518-24.128 1.2953-36.053 2.4199-29.68 2.781-75.494 7.9946-141.1 33.301-11.93 4.6021-24.683 9.7428-35.674 16.896-10.952 7.1112-24.116 11.738-34.754 19.824-5.3003 4.0288-12.071 8.6277-18.035 13.728-5.9639 5.1008-11.127 10.7-13.191 16.764l0.29297 0.20117c21.032-20.589 46.181-19.448 72.375-14.078 26.194 5.3703 53.4 14.991 78.447 11.277l0.0137-0.34179c-13.891-5.1445-31.585-9.0725-40.297-22.086 27.962 15.527 62.774 16.55 91.635 9.0469l-0.0273-0.34375c-16.454-3.9374-36.97-8.0169-48.479-20.975 32.001 7.8662 68.68 10.935 97.066-4.6836 0 0-25.846-6.7989-36.012-16.475 42.753 15.075 86.079 0.97789 129.98 5.1367l0.46679 0.0449-0.34766-0.3418c-11.353-11.192-24.922-18.635-38-26.488 8.2586-1.1196 16.413 2.7129 24.504 7.3887 8.2731 4.7812 16.468 10.364 24.646 12.111 16.274 3.4932 32.884 4.0018 49.371 3.5l0.0195 4e-5 0.0175-4e-3c1.3342-0.31545 2.791-0.048 4.1133-0.64648l0.17384-0.0801-0.10937-0.16993c-1.4052-2.2132-4.0362-4.0746-6.1602-6.0664-1.062-0.99588-1.9941-2.0206-2.5918-3.1211-0.56055-1.0323-0.79217-2.1367-0.60545-3.3652 2.6484 0.9393 4.7225 3.0018 7.2676 4.3848 8.7878 6.863 18.783 7.9952 29.051 10.406 10.309 2.4208 17.709 2.4578 28.061 6.9453 10.406 4.5281 17.853 5.0197 28.215 13.006 1.3101 1.0098 2.4234 1.6483 3.3711 1.9707 0.94767 0.32236 1.7378 0.32674 2.3652 0.0469 0.6274-0.27989 1.0775-0.83649 1.377-1.5781 0.29946-0.74166 0.45488-1.6744 0.49414-2.7422 0.15865-4.2705-1.5151-10.736-3.6172-15.734-4.1804-9.9525-9.0429-20.132-16.248-29.096-7.2079-8.9674-19.347-19.325-28.109-26.281-8.7771-6.9518-19.562-12.622-29.223-16.859-9.693-4.2513-18.295-3.7835-28.092-5.4668-9.6243-1.6465-18.58-0.0196-27.301 0.70117 8.2793-7.3398 20.203-7.8604 31.182-8.9024l0.50196-0.0469-0.44922-0.27539c-9.3487-5.8012-21.24-9.278-31.559-11.996-10.309-2.7254-20.11-5.1947-30.563-6.3555-10.434-1.1753-19.745-2.5544-30.445-2.1856l-2e-3 -1e-3c-10.683 0.38489-19.512 0.83391-30.303 2.7383-10.839 1.9093-20.581 8.0664-30.049 13.781-4.7562 2.8694-9.8761 7.7981-14.967 12.398-4.9181 4.4443-9.802 8.5244-14.262 10.199 8.9664-18.973 26.264-33.84 43.582-44.797l0.39844-0.25196-0.48437-0.0723c-17.689-2.7205-32.079 0.87081-49.217 2.2793-17.176 1.4116-31.729 6.2377-48.127 11.893-16.236 5.5991-33.561 20.323-43.822 33.576 1.6112-11.132 6.7284-22.46 15.373-30.1l0.48633-0.43164-0.6504 0.11914c-38.905 7.0918-72.258 40.194-83.936 77.943-3.9066-13.879 0.41079-28.873 5.5547-40.645l0.25192-0.58008-0.51757 0.34765c-14.313 9.6597-15.99 30.815-17.566 47.828-4.7139-4.4157-5.0417-12.92-6.3945-21.473-16.424 11.781-32.364 32.149-55.602 66.184-29.103 46.156-44.629 99.616-44.643 154.26-3.5e-4 159.83 129.57 289.4 289.4 289.4zm-193.48-477.02c-2.9483-2.5636-11.997-1.2227-9.5-8.6562 4.6051 3.7695 8.7674 4.4316 9.5 8.6562zm5.9316-3.1504c-7.3036-3.9337-12.419-7.2565-7.2031-15.033 1.6459 9.5424 5.9058 10.496 7.2031 15.033z" fill="#ffffffaa" stroke-linecap="round" stroke-linejoin="round" stroke-width=".5436"/>
</svg>
